<svg width="174" height="28" viewBox="0 0 174 28" fill="none" xmlns="http://www.w3.org/2000/svg">
<path d="M16.0429 21.3063C13.8665 20.498 11.628 20.3736 9.57596 20.9333C8.14578 21.3063 6.77778 22.0525 5.53414 22.9852L4.66358 23.7314L4.41486 23.9802L4.97449 24.4776C5.03667 24.4776 5.03668 24.5398 5.09886 24.602C5.22322 24.7263 5.34759 24.7885 5.53414 24.9129L5.90722 25.1616L6.28031 24.8507C6.34249 24.7885 6.46686 24.6642 6.59122 24.602C7.71049 23.6692 8.95412 23.0474 10.2599 22.7365C11.9389 22.3012 13.7421 22.3634 15.5454 23.0474C17.0378 23.6071 20.0847 24.2911 23.7534 22.7365L23.8778 22.6743L24.0643 22.4878C24.0643 22.4256 24.1265 22.4256 24.1887 22.3634C24.4996 21.9903 24.8105 21.6172 25.0592 21.182L26.3029 19.2543L24.313 20.3736C21.3905 21.9903 18.7167 22.3012 16.0429 21.3063Z" fill="#39BE00"/>
<path d="M7.52395 14.5907C9.20286 14.1554 11.0061 14.2176 12.8094 14.9016C14.7992 15.6478 19.8981 16.7049 25.6189 11.5438L26.5516 10.6111L26.6138 10.5489L26.8625 10.3002L26.7381 9.98927C26.6759 9.74054 26.5516 9.42964 26.4272 9.11873L26.1163 8.24817L25.4945 8.86999C25.4323 8.99435 25.3079 9.05653 25.1836 9.1809C22.4476 11.9791 18.2192 14.8395 13.369 13.0984C11.1927 12.29 8.95413 12.1656 6.90213 12.7253C4.91231 13.2849 3.17122 14.342 1.55449 15.8344V15.7722L0.621761 16.7671C0.621761 16.8293 0.559591 16.8293 0.497409 16.8915L0.310852 17.078L0.373038 17.3267C0.435219 17.6376 0.559579 17.9485 0.621761 18.2594L0.994856 19.2544L1.61667 18.446C1.67886 18.3216 1.80322 18.2595 1.8654 18.1351C3.17122 16.9536 4.97449 15.2747 7.52395 14.5907Z" fill="#39BE00"/>
<path d="M1.49238 13.4714C2.92256 11.9791 4.53928 11.0463 6.28037 10.5489C7.95928 10.1136 9.76255 10.1758 11.5658 10.8598C17.1622 12.9118 22.0124 9.55398 24.1266 7.75071L24.9349 6.94236L25.2458 6.69361L24.9971 6.32054C24.8106 6.13399 24.6862 5.88526 24.4997 5.63653L24.1266 5.13907L23.6913 5.57435C23.6291 5.63653 23.5047 5.76089 23.4426 5.82307C20.8309 8.31034 16.7891 10.8598 12.1876 9.11872C10.0113 8.31036 7.77273 8.18599 5.72073 8.74563C4.41492 9.11872 3.17128 9.74053 1.92764 10.5489L0.621818 11.606C0.497455 11.7304 0.435273 11.7925 0.310909 11.9169L0.186557 12.0413V12.2278C0.124375 12.6631 0.124367 13.0984 0.0621856 13.4714L0 15.026L1.0571 13.9067C1.18146 13.7823 1.30583 13.5958 1.49238 13.4714Z" fill="#39BE00"/>
<path d="M17.8462 25.5347L17.7218 25.9078L17.8462 25.5347C17.6597 25.4725 17.5353 25.4103 17.3488 25.3481C15.1724 24.5398 12.9338 24.4154 10.8818 24.9751C10.4466 25.0994 10.0113 25.2238 9.57603 25.4103L8.08365 26.0943L7.71057 26.2809L8.95421 26.7162C9.3273 26.8405 9.70038 26.9649 10.0735 27.0892L10.26 27.1514L10.4466 27.0892C10.6331 27.0271 10.8197 26.9027 11.0062 26.9027C11.1306 26.9027 11.2549 26.8405 11.3793 26.7783C12.8717 26.4052 14.4884 26.4052 16.2295 26.9649C16.416 27.0271 16.5404 27.0893 16.7269 27.1514L17.0378 27.2758L17.2244 27.2136C17.6597 27.0892 18.1571 26.9649 18.5302 26.7783L20.2713 26.1565L18.468 25.7212C18.2815 25.6591 18.0327 25.5969 17.8462 25.5347Z" fill="#39BE00"/>
<path d="M27.36 12.6631L26.4273 13.5958C26.3029 13.7202 26.1786 13.8445 26.0542 13.9689C23.5047 16.394 19.4007 19.0056 14.7993 17.2645C12.6229 16.4562 10.3844 16.3318 8.33237 16.8915C6.40473 17.4511 4.66363 18.446 3.10908 19.9384L2.30073 20.8089L2.052 21.1198L2.30073 21.4929C2.48727 21.7416 2.61164 21.9282 2.73601 22.1769L3.10908 22.7365L3.54436 22.1769C3.60654 22.1147 3.7309 21.9904 3.79309 21.9282C5.28545 20.3114 6.90218 19.3165 8.76763 18.8191C10.4465 18.3838 12.2498 18.446 14.0531 19.13C15.6076 19.6896 17.2244 19.8762 18.8411 19.6896C21.7015 19.3787 24.5618 17.762 26.676 15.9587C26.8004 15.8344 26.9247 15.7722 27.0491 15.6478L27.2356 15.4613V15.2747C27.2356 14.9016 27.2978 14.4664 27.2978 14.0933L27.36 12.6631Z" fill="#39BE00"/>
<path d="M3.73088 6.94238L3.54434 6.56928L3.73088 6.94238C4.10397 6.75583 4.53926 6.63146 4.91235 6.5071C6.59126 6.07183 8.39453 6.13401 10.1978 6.81801C11.3793 7.25328 12.5607 7.43983 13.8665 7.43983C16.4782 7.43983 19.0898 6.5071 21.5149 4.70383L22.4476 3.95764L22.7585 3.70892L22.1989 3.27364C22.0123 3.08709 21.7636 2.90055 21.5149 2.77619L21.1418 2.52747L20.8309 2.77619C20.7065 2.83837 20.6443 2.96273 20.52 3.02491C17.2243 5.51219 13.9287 6.19619 10.8196 5.01474C8.58108 4.20637 6.34252 4.01983 4.10397 4.70383C3.91743 4.76601 3.73088 4.82819 3.48215 4.89037L3.3578 4.95255L3.17125 5.13909C3.17125 5.20127 3.10908 5.20128 3.04689 5.26346C2.79817 5.63655 2.48725 5.94747 2.23852 6.32056L1.05707 8.12383L2.98471 7.12892C3.29562 7.12892 3.54433 7.00456 3.73088 6.94238Z" fill="#39BE00"/>
<path d="M8.82979 2.71399L9.01633 2.77617C9.82469 3.08708 11.0683 3.39799 12.6229 3.39799C14.2396 3.39799 15.7942 3.0249 17.3487 2.40308L19.2763 1.47035L17.9705 1.03509C17.5974 0.910728 17.2243 0.786364 16.7891 0.724182H16.6025L16.416 0.786349C16.2294 0.848531 16.0429 0.972909 15.8563 1.03509C13.9909 1.71909 12.1254 1.84345 10.3222 1.346C10.1356 1.28382 9.94906 1.22163 9.76252 1.15944L9.57598 1.09726L9.38942 1.15944C9.01633 1.28381 8.64325 1.40818 8.27016 1.59472L6.83997 2.21654L8.33234 2.6518C8.45671 2.58962 8.64325 2.65181 8.82979 2.71399Z" fill="#39BE00"/>
<path d="M39.1999 22V7.9H41.4599L46.6399 19.56H46.0199L51.1999 7.9H53.4399V22H51.0999V11.54H51.8199L47.0799 22H45.5399L40.7999 11.54H41.5399V22H39.1999ZM56.1823 26.54L55.6023 24.56C56.2289 24.4267 56.7556 24.2733 57.1823 24.1C57.6089 23.9267 57.9623 23.7 58.2423 23.42C58.5223 23.14 58.7556 22.78 58.9423 22.34L59.4423 21.16L59.3823 22.14L54.9823 11.9H57.6423L60.8023 19.78H60.2223L63.4023 11.9H65.9223L61.3223 22.56C61.0156 23.28 60.6823 23.8733 60.3223 24.34C59.9623 24.82 59.5756 25.2 59.1623 25.48C58.7489 25.7733 58.2956 26 57.8023 26.16C57.3089 26.32 56.7689 26.4467 56.1823 26.54ZM72.9299 22V7.9H82.2299V9.92H75.5099V13.92H81.7699V15.94H75.5099V22H72.9299ZM84.1752 22V11.9H86.6752V22H84.1752ZM84.0352 10V7.56H86.8152V10H84.0352ZM89.3901 22V14.42C89.3901 14.0067 89.3768 13.5867 89.3501 13.16C89.3234 12.7333 89.2834 12.3133 89.2301 11.9H91.6501L91.8501 13.9H91.6101C91.9301 13.1933 92.4034 12.6533 93.0301 12.28C93.6568 11.8933 94.3834 11.7 95.2101 11.7C96.3968 11.7 97.2901 12.0333 97.8901 12.7C98.4901 13.3667 98.7901 14.4067 98.7901 15.82V22H96.2901V15.94C96.2901 15.1267 96.1301 14.5467 95.8101 14.2C95.5034 13.84 95.0368 13.66 94.4101 13.66C93.6368 13.66 93.0234 13.9 92.5701 14.38C92.1168 14.86 91.8901 15.5 91.8901 16.3V22H89.3901ZM105.341 22.2C104.461 22.2 103.688 21.9933 103.021 21.58C102.354 21.1533 101.834 20.5467 101.461 19.76C101.088 18.9733 100.901 18.0333 100.901 16.94C100.901 15.8467 101.088 14.9133 101.461 14.14C101.834 13.3533 102.354 12.7533 103.021 12.34C103.688 11.9133 104.461 11.7 105.341 11.7C106.194 11.7 106.941 11.9133 107.581 12.34C108.234 12.7533 108.668 13.3133 108.881 14.02H108.661L108.881 11.9H111.281C111.241 12.3133 111.201 12.7333 111.161 13.16C111.134 13.5867 111.121 14.0067 111.121 14.42V22H108.641L108.621 19.92H108.861C108.648 20.6133 108.214 21.1667 107.561 21.58C106.908 21.9933 106.168 22.2 105.341 22.2ZM106.041 20.28C106.828 20.28 107.461 20.0067 107.941 19.46C108.421 18.9 108.661 18.06 108.661 16.94C108.661 15.82 108.421 14.9867 107.941 14.44C107.461 13.8933 106.828 13.62 106.041 13.62C105.254 13.62 104.621 13.8933 104.141 14.44C103.661 14.9867 103.421 15.82 103.421 16.94C103.421 18.06 103.654 18.9 104.121 19.46C104.601 20.0067 105.241 20.28 106.041 20.28ZM113.843 22V14.42C113.843 14.0067 113.83 13.5867 113.803 13.16C113.777 12.7333 113.737 12.3133 113.683 11.9H116.103L116.303 13.9H116.063C116.383 13.1933 116.857 12.6533 117.483 12.28C118.11 11.8933 118.837 11.7 119.663 11.7C120.85 11.7 121.743 12.0333 122.343 12.7C122.943 13.3667 123.243 14.4067 123.243 15.82V22H120.743V15.94C120.743 15.1267 120.583 14.5467 120.263 14.2C119.957 13.84 119.49 13.66 118.863 13.66C118.09 13.66 117.477 13.9 117.023 14.38C116.57 14.86 116.343 15.5 116.343 16.3V22H113.843ZM130.534 22.2C129.494 22.2 128.581 21.9867 127.794 21.56C127.021 21.1333 126.421 20.5267 125.994 19.74C125.567 18.94 125.354 17.9933 125.354 16.9C125.354 15.8067 125.567 14.8733 125.994 14.1C126.434 13.3267 127.041 12.7333 127.814 12.32C128.587 11.9067 129.494 11.7 130.534 11.7C131.201 11.7 131.847 11.8067 132.474 12.02C133.114 12.22 133.634 12.5133 134.034 12.9L133.274 14.64C132.914 14.3067 132.507 14.06 132.054 13.9C131.614 13.7267 131.181 13.64 130.754 13.64C129.861 13.64 129.161 13.92 128.654 14.48C128.161 15.04 127.914 15.8533 127.914 16.92C127.914 17.9867 128.161 18.8067 128.654 19.38C129.161 19.9533 129.861 20.24 130.754 20.24C131.167 20.24 131.594 20.16 132.034 20C132.487 19.84 132.901 19.5933 133.274 19.26L134.034 20.98C133.621 21.3667 133.094 21.6667 132.454 21.88C131.827 22.0933 131.187 22.2 130.534 22.2ZM140.657 22.2C138.963 22.2 137.637 21.7333 136.677 20.8C135.717 19.8667 135.237 18.5867 135.237 16.96C135.237 15.9067 135.443 14.9867 135.857 14.2C136.27 13.4133 136.843 12.8 137.577 12.36C138.323 11.92 139.19 11.7 140.177 11.7C141.15 11.7 141.963 11.9067 142.617 12.32C143.27 12.7333 143.763 13.3133 144.097 14.06C144.443 14.8067 144.617 15.68 144.617 16.68V17.34H137.257V16.02H142.837L142.497 16.3C142.497 15.3667 142.297 14.6533 141.897 14.16C141.51 13.6667 140.943 13.42 140.197 13.42C139.37 13.42 138.73 13.7133 138.277 14.3C137.837 14.8867 137.617 15.7067 137.617 16.76V17.02C137.617 18.1133 137.883 18.9333 138.417 19.48C138.963 20.0133 139.73 20.28 140.717 20.28C141.29 20.28 141.823 20.2067 142.317 20.06C142.823 19.9 143.303 19.6467 143.757 19.3L144.497 20.98C144.017 21.3667 143.443 21.6667 142.777 21.88C142.11 22.0933 141.403 22.2 140.657 22.2ZM146.454 22V19.22H149.254V22H146.454ZM155.536 22.2C154.656 22.2 153.883 21.9933 153.216 21.58C152.55 21.1533 152.03 20.5467 151.656 19.76C151.283 18.9733 151.096 18.0333 151.096 16.94C151.096 15.8467 151.283 14.9133 151.656 14.14C152.03 13.3533 152.55 12.7533 153.216 12.34C153.883 11.9133 154.656 11.7 155.536 11.7C156.39 11.7 157.136 11.9133 157.776 12.34C158.43 12.7533 158.863 13.3133 159.076 14.02H158.856L159.076 11.9H161.476C161.436 12.3133 161.396 12.7333 161.356 13.16C161.33 13.5867 161.316 14.0067 161.316 14.42V22H158.836L158.816 19.92H159.056C158.843 20.6133 158.41 21.1667 157.756 21.58C157.103 21.9933 156.363 22.2 155.536 22.2ZM156.236 20.28C157.023 20.28 157.656 20.0067 158.136 19.46C158.616 18.9 158.856 18.06 158.856 16.94C158.856 15.82 158.616 14.9867 158.136 14.44C157.656 13.8933 157.023 13.62 156.236 13.62C155.45 13.62 154.816 13.8933 154.336 14.44C153.856 14.9867 153.616 15.82 153.616 16.94C153.616 18.06 153.85 18.9 154.316 19.46C154.796 20.0067 155.436 20.28 156.236 20.28ZM164.039 22V11.9H166.539V22H164.039ZM163.899 10V7.56H166.679V10H163.899Z" fill="white"/>
</svg>
